<svg width="18" height="18" viewBox="0 0 18 18" fill="none" xmlns="http://www.w3.org/2000/svg">
<path fill-rule="evenodd" clip-rule="evenodd" d="M6.79276 6.58963H9.41046V7.89355C9.78754 7.14362 10.7546 6.46981 12.2072 6.46981C14.9919 6.46981 15.6531 7.96262 15.6531 10.7016V15.7742H12.8338V11.3253C12.8338 9.76556 12.4567 8.88594 11.4967 8.88594C10.1653 8.88594 9.61204 9.83392 9.61204 11.3246V15.7742H6.79276V6.58963ZM1.95839 15.6543H4.77767V6.46981H1.95839V15.6543ZM5.18154 3.47503C5.18164 3.71134 5.13477 3.94531 5.04366 4.16335C4.95255 4.38138 4.81901 4.57914 4.6508 4.74512C4.30995 5.08387 3.84858 5.27349 3.36803 5.27232C2.88832 5.272 2.42802 5.08286 2.08667 4.74582C1.91907 4.57928 1.78598 4.3813 1.69503 4.16324C1.60408 3.94517 1.55705 3.7113 1.55664 3.47503C1.55664 2.99786 1.74694 2.54114 2.08737 2.20424C2.42842 1.86674 2.88892 1.67752 3.36874 1.67773C3.84942 1.67773 4.31038 1.86733 4.6508 2.20424C4.99053 2.54114 5.18154 2.99786 5.18154 3.47503Z" fill="#0060B9"/>
</svg>
