<svg width="20" height="20" viewBox="0 0 20 20" fill="none" xmlns="http://www.w3.org/2000/svg">
<path d="M17.6714 5.30592C17.1097 5.5482 16.4985 5.72257 15.869 5.79049C16.5226 5.40217 17.0121 4.78869 17.2456 4.06514C16.6322 4.43002 15.9603 4.68587 15.2596 4.82136C14.9667 4.50827 14.6125 4.25886 14.2191 4.08865C13.8256 3.91844 13.4013 3.83109 12.9726 3.83204C11.2381 3.83204 9.84311 5.23801 9.84311 6.96335C9.84311 7.20564 9.87248 7.44792 9.9202 7.68102C7.32301 7.5452 5.00664 6.30442 3.46668 4.40471C3.18608 4.88398 3.03904 5.42968 3.04085 5.98505C3.04085 7.07165 3.59333 8.02976 4.43581 8.59325C3.93932 8.5737 3.45446 8.43723 3.02066 8.19495V8.2335C3.02066 9.75511 4.09625 11.0161 5.52975 11.3061C5.2606 11.376 4.98371 11.4118 4.70563 11.4125C4.50189 11.4125 4.30916 11.3923 4.1146 11.3648C4.51107 12.6056 5.66558 13.5068 7.04035 13.5362C5.96476 14.3787 4.61752 14.8742 3.15465 14.8742C2.89218 14.8742 2.6499 14.8651 2.39844 14.8357C3.78605 15.7259 5.43247 16.2398 7.20554 16.2398C12.9616 16.2398 16.1112 11.4713 16.1112 7.33228C16.1112 7.19646 16.1112 7.06063 16.1021 6.92481C16.7114 6.47879 17.2456 5.92631 17.6714 5.30592Z" fill="#0060B9"/>
</svg>
