<svg width="21" height="21" viewBox="0 0 21 21" fill="none" xmlns="http://www.w3.org/2000/svg">
<path d="M10.6269 18.4177C8.50648 18.4177 8.25651 18.4065 7.42901 18.3703C6.7837 18.3491 6.14675 18.2179 5.54558 17.9824C5.03114 17.7822 4.56395 17.4772 4.17368 17.0868C3.78341 16.6964 3.47859 16.2291 3.27858 15.7146C3.05214 15.1112 2.93001 14.4737 2.91741 13.8294C2.86914 13.0037 2.86914 12.733 2.86914 10.6289C2.86914 8.5024 2.88035 8.25415 2.91741 7.43096C2.93029 6.78751 3.05242 6.15093 3.27858 5.5484C3.47836 5.03323 3.78338 4.56538 4.17417 4.17474C4.56496 3.7841 5.03292 3.47925 5.54817 3.27967C6.15039 3.05228 6.78713 2.92983 7.43073 2.91764C8.25392 2.87109 8.52458 2.87109 10.6269 2.87109C12.7647 2.87109 13.0103 2.8823 13.8249 2.91764C14.4697 2.92971 15.1092 3.05211 15.7126 3.27967C16.2277 3.47949 16.6956 3.78441 17.0863 4.17502C17.4771 4.56563 17.7822 5.03336 17.9822 5.5484C18.2124 6.1604 18.3356 6.80689 18.3451 7.45941C18.3934 8.28518 18.3934 8.55498 18.3934 10.6582C18.3934 12.7614 18.3813 13.0373 18.3451 13.8536C18.3322 14.4985 18.2098 15.1365 17.9831 15.7404C17.7826 16.2553 17.4772 16.7229 17.0863 17.1134C16.6955 17.504 16.2277 17.809 15.7126 18.0092C15.1092 18.235 14.4722 18.3574 13.8283 18.3703C13.0051 18.4177 12.7353 18.4177 10.6269 18.4177ZM10.5976 4.23561C8.48924 4.23561 8.2703 4.24595 7.44711 4.28301C6.95548 4.28944 6.46859 4.38011 6.00761 4.55109C5.67137 4.67997 5.36588 4.87787 5.11082 5.13205C4.85575 5.38622 4.65678 5.69102 4.52673 6.0268C4.35433 6.49227 4.26382 6.98446 4.25865 7.48096C4.21297 8.31621 4.21297 8.53516 4.21297 10.6289C4.21297 12.6977 4.22072 12.9485 4.25865 13.7786C4.26641 14.2699 4.35692 14.7569 4.52673 15.2181C4.79049 15.8965 5.32837 16.4326 6.00847 16.6929C6.46886 16.865 6.95565 16.9557 7.44711 16.961C8.28151 17.0093 8.50131 17.0093 10.5976 17.0093C12.7121 17.0093 12.931 16.9989 13.7473 16.961C14.239 16.955 14.726 16.8644 15.1868 16.6929C15.5213 16.5631 15.825 16.365 16.0788 16.1114C16.3325 15.8578 16.5307 15.5542 16.6608 15.2198C16.8332 14.7543 16.9237 14.2613 16.9289 13.7648H16.9384C16.9754 12.9407 16.9754 12.7209 16.9754 10.6151C16.9754 8.5093 16.9659 8.28777 16.9289 7.46458C16.9211 6.97365 16.8304 6.48755 16.6608 6.0268C16.531 5.69196 16.333 5.38782 16.0792 5.13374C15.8254 4.87967 15.5215 4.68124 15.1868 4.55109C14.7261 4.37928 14.239 4.28858 13.7473 4.28301C12.9138 4.23561 12.6957 4.23561 10.5976 4.23561ZM10.6269 14.6104C9.83873 14.6109 9.06807 14.3776 8.41243 13.9401C7.75679 13.5026 7.24563 12.8805 6.9436 12.1524C6.64156 11.4244 6.56223 10.6231 6.71563 9.84994C6.86902 9.07679 7.24826 8.3665 7.80538 7.80891C8.36249 7.25131 9.07245 6.87146 9.84546 6.71739C10.6185 6.56333 11.4198 6.64197 12.1481 6.94337C12.8765 7.24477 13.499 7.75539 13.9371 8.41065C14.3752 9.06591 14.6091 9.83637 14.6093 10.6246C14.6079 11.6807 14.188 12.6932 13.4416 13.4402C12.6952 14.1873 11.683 14.6081 10.6269 14.6104ZM10.6269 8.03693C10.1155 8.03693 9.61554 8.18859 9.19028 8.47274C8.76503 8.75689 8.43358 9.16076 8.23786 9.63327C8.04213 10.1058 7.99092 10.6257 8.0907 11.1274C8.19048 11.629 8.43677 12.0898 8.79842 12.4514C9.16007 12.8131 9.62084 13.0593 10.1225 13.1591C10.6241 13.2589 11.144 13.2077 11.6165 13.012C12.0891 12.8162 12.4929 12.4848 12.7771 12.0595C13.0612 11.6343 13.2129 11.1343 13.2129 10.6229C13.2113 9.93753 12.9383 9.28071 12.4537 8.7961C11.9691 8.31148 11.3123 8.03853 10.6269 8.03693ZM14.7644 7.42234C14.6424 7.42189 14.5217 7.39741 14.4091 7.35029C14.2966 7.30317 14.1944 7.23435 14.1084 7.14774C13.9348 6.97284 13.8378 6.73612 13.8387 6.48968C13.8396 6.24324 13.9384 6.00725 14.1133 5.83364C14.2882 5.66002 14.5249 5.563 14.7713 5.56392C15.0178 5.56483 15.2538 5.66361 15.4274 5.83851C15.601 6.01342 15.698 6.25013 15.6971 6.49658C15.6962 6.74302 15.5974 6.979 15.4225 7.15262C15.2476 7.32623 15.0109 7.42326 14.7644 7.42234Z" fill="#0060B9"/>
</svg>
