<svg width="17" height="17" viewBox="0 0 17 17" fill="none" xmlns="http://www.w3.org/2000/svg">
<path d="M11.8177 0.583984H5.18357C2.3019 0.583984 0.583984 2.3019 0.583984 5.18357V11.8098C0.583984 14.6994 2.3019 16.4173 5.18357 16.4173H11.8098C14.6915 16.4173 16.4094 14.6994 16.4094 11.8177V5.18357C16.4173 2.3019 14.6994 0.583984 11.8177 0.583984ZM10.7094 8.92023L7.91482 11.7148C7.79607 11.8336 7.64565 11.889 7.49523 11.889C7.34482 11.889 7.1944 11.8336 7.07565 11.7148C6.84607 11.4852 6.84607 11.1052 7.07565 10.8757L9.45065 8.50065L7.07565 6.12565C6.84607 5.89607 6.84607 5.51607 7.07565 5.28648C7.30523 5.0569 7.68523 5.0569 7.91482 5.28648L10.7094 8.08107C10.9469 8.31065 10.9469 8.69065 10.7094 8.92023Z" fill="white"/>
</svg>
