<svg width="18" height="17" viewBox="0 0 18 17" fill="none" xmlns="http://www.w3.org/2000/svg">
<path d="M14.8388 1.58754C15.1632 1.46958 15.3305 1.11098 15.2125 0.786581C15.0946 0.462185 14.736 0.294837 14.4116 0.412799L4.00031 4.19872V1.00017C4.00031 0.654994 3.72048 0.375172 3.37531 0.375172H2.12531C1.78013 0.375172 1.50031 0.654994 1.50031 1.00017V5.10781L0.661581 5.4128C0.337185 5.53076 0.169837 5.88936 0.287799 6.21376C0.405761 6.53816 0.764364 6.7055 1.08876 6.58754L14.8388 1.58754Z" fill="#999999"/>
<path fill-rule="evenodd" clip-rule="evenodd" d="M1.5161 7.76228L14.0003 3.22257V6.07382L17.3388 7.2878C17.6632 7.40576 17.8305 7.76436 17.7125 8.08876C17.5946 8.41316 17.236 8.5805 16.9116 8.46254L16.5002 8.31294V15.3752H17.1253C17.4705 15.3752 17.7503 15.655 17.7503 16.0002C17.7503 16.3453 17.4705 16.6252 17.1253 16.6252H0.875305C0.530127 16.6252 0.250305 16.3453 0.250305 16.0002C0.250305 15.655 0.530127 15.3752 0.875305 15.3752H1.50031V7.76794L1.5161 7.76228ZM14.0003 15.3752V7.4039L15.2502 7.85839V15.3752H14.0003ZM6.50031 10.3752C6.15513 10.3752 5.87531 10.655 5.87531 11.0002V14.7502C5.87531 15.0953 6.15513 15.3752 6.50031 15.3752H9.00031C9.34548 15.3752 9.62531 15.0953 9.62531 14.7502V11.0002C9.62531 10.655 9.34548 10.3752 9.00031 10.3752H6.50031Z" fill="#999999"/>
</svg>
