<svg width="20" height="20" viewBox="0 0 20 20" fill="none" xmlns="http://www.w3.org/2000/svg">
<g clip-path="url(#clip0_826_7415)">
<path d="M18.7565 5.58284C18.6409 4.65835 17.832 3.84941 16.8497 3.79163C11.1872 3.38716 8.41371 3.38716 2.80896 3.79163C1.88446 3.84941 1.07553 4.65835 0.959967 5.58284C0.497719 8.99192 0.497719 10.7253 0.959967 14.1344C1.07553 15.0589 1.94224 15.8679 2.86674 15.9256C5.64022 16.099 7.77812 16.2145 9.85823 16.2145C11.9383 16.2145 14.0762 16.099 16.9075 15.9256C17.832 15.8679 18.6409 15.0589 18.8143 14.1344C19.2188 10.7253 19.2188 8.99192 18.7565 5.58284ZM12.8051 10.8409L9.33821 13.1521C9.16486 13.2677 8.93374 13.3255 8.70262 13.3255C8.52927 13.3255 8.29815 13.2677 8.18259 13.2099C7.77812 12.9788 7.547 12.6321 7.547 12.1699V7.54739C7.547 7.08515 7.77812 6.73846 8.18259 6.50734C8.58705 6.27621 8.99152 6.33399 9.39599 6.56512L12.8628 8.87635C13.2095 9.10748 13.3829 9.45416 13.3829 9.85863C13.3829 10.2631 13.1517 10.6098 12.8051 10.8409Z" fill="#0060B9"/>
</g>
<defs>
<clipPath id="clip0_826_7415">
<rect width="18.4899" height="18.4899" fill="white" transform="translate(0.613281 0.613281)"/>
</clipPath>
</defs>
</svg>
